<svg xmlns="http://www.w3.org/2000/svg" width="18.998" height="472.542">
  <path d="M-7.348 625V-625H-7.5V625h.152" style="fill:none;stroke-width:0.5mm;stroke:#000;" transform="matrix(.37795 0 0 .37795 9.499 236.271)" />
  <path d="M7.5 625V-625h-.152V625H7.5" style="fill:none;stroke-width:0.5mm;stroke:#000;" transform="matrix(.37795 0 0 .37795 9.499 236.271)" />
  <path d="M1.299 593.886A6.251 6.251 0 0 1 0 606.25v0a6.25 6.25 0 1 1 0-12.5v0a6.3 6.3 0 0 1 1.299.136" style="fill:none;stroke-width:0.5mm;stroke:#000;" transform="matrix(.37795 0 0 .37795 9.499 236.271)" />
  <path d="M1.299-606.113A6.25 6.25 0 0 1 0-593.75v0a6.251 6.251 0 0 1 0-12.5v0c.437 0 .872.046 1.299.137" style="fill:none;stroke-width:0.5mm;stroke:#000;" transform="matrix(.37795 0 0 .37795 9.499 236.271)" />
  <path d="M1.299-306.113A6.25 6.25 0 0 1 0-293.75v0a6.251 6.251 0 0 1 0-12.5v0c.437 0 .872.046 1.299.137" style="fill:none;stroke-width:0.5mm;stroke:#000;" transform="matrix(.37795 0 0 .37795 9.499 236.271)" />
  <path d="M1.299 543.886A6.251 6.251 0 0 1 0 556.25v0a6.25 6.25 0 1 1 0-12.5v0a6.3 6.3 0 0 1 1.299.136" style="fill:none;stroke-width:0.5mm;stroke:#000;"  transform="matrix(.37795 0 0 .37795 9.499 236.271)" />
  <path d="M0 625v-18.75" style="fill:none;stroke-width:0.5mm;stroke:#000;" transform="matrix(.37795 0 0 .37795 9.499 236.271)" />
  <path d="M0 593.75v-37.5" style="fill:none;stroke-width:0.5mm;stroke:#000;" transform="matrix(.37795 0 0 .37795 9.499 236.271)" />
  <path d="M0 543.75v-837.5" style="fill:none;stroke-width:0.5mm;stroke:#000;" transform="matrix(.37795 0 0 .37795 9.499 236.271)" />
  <path d="M0-306.25v-287.5" style="fill:none;stroke-width:0.5mm;stroke:#000;" transform="matrix(.37795 0 0 .37795 9.499 236.271)" />
  <path d="M18.948 472.492V.05H.05v472.44H18.948" style="fill:none;stroke-width:0.5mm;stroke:#000;"/>
  <path d="M0-606.25V-625" style="fill:none;stroke-width:0.5mm;stroke:#000;" transform="matrix(.37795 0 0 .37795 9.499 236.271)" />
</svg>