<svg xmlns="http://www.w3.org/2000/svg" viewBox="0 0 10.026 95.027" height="359.157" width="37.895">
<path d="M50 475v-950" style="fill:none;stroke-width:0.5mm;stroke:#000;" transform="matrix(.1 0 0 .1 5.013 47.513)" />
<path d="M-17.5 475v-950" style="fill:none;stroke-width:0.5mm;stroke:#000;" transform="matrix(.1 0 0 .1 5.013 47.513)" />
<path d="M17.5 475v-950" style="fill:none;stroke-width:0.5mm;stroke:#000;" transform="matrix(.1 0 0 .1 5.013 47.513)" />
<path d="M17.5-475h.152" style="fill:none;stroke-width:0.5mm;stroke:#000;" transform="matrix(.1 0 0 .1 5.013 47.513)" />
<path d="M17.5 475h.152" style="fill:none;stroke-width:0.5mm;stroke:#000;" transform="matrix(.1 0 0 .1 5.013 47.513)" />
<path d="M23.701 475v-950" style="fill:none;stroke-width:0.5mm;stroke:#000;" transform="matrix(.1 0 0 .1 5.013 47.513)" />
<path d="M26.299 475v-950" style="fill:none;stroke-width:0.5mm;stroke:#000;" transform="matrix(.1 0 0 .1 5.013 47.513)" />
<path d="M32.348 475v-950" style="fill:none;stroke-width:0.5mm;stroke:#000;" transform="matrix(.1 0 0 .1 5.013 47.513)" />
<path d="M32.348-475h.152" style="fill:none;stroke-width:0.5mm;stroke:#000;" transform="matrix(.1 0 0 .1 5.013 47.513)" />
<path d="M-50 475v-950" style="fill:none;stroke-width:0.5mm;stroke:#000;" transform="matrix(.1 0 0 .1 5.013 47.513)" />
<path d="M-32.5 475v-950" style="fill:none;stroke-width:0.5mm;stroke:#000;" transform="matrix(.1 0 0 .1 5.013 47.513)" />
<path d="M-32.5-475h.152" style="fill:none;stroke-width:0.5mm;stroke:#000;" transform="matrix(.1 0 0 .1 5.013 47.513)" />
<path d="M-32.5 475h.152" style="fill:none;stroke-width:0.5mm;stroke:#000;" transform="matrix(.1 0 0 .1 5.013 47.513)" />
<path d="M-32.348 475v-950" style="fill:none;stroke-width:0.5mm;stroke:#000;" transform="matrix(.1 0 0 .1 5.013 47.513)" />
<path d="M-26.299 475v-950" style="fill:none;stroke-width:0.5mm;stroke:#000;" transform="matrix(.1 0 0 .1 5.013 47.513)" />
<path d="M-25 475v-950" style="fill:none;stroke-width:0.5mm;stroke:#000;" transform="matrix(.1 0 0 .1 5.013 47.513)" />
<path d="M-23.701 475v-950" style="fill:none;stroke-width:0.5mm;stroke:#000;" transform="matrix(.1 0 0 .1 5.013 47.513)" />
<path d="M-17.652 475v-950" style="fill:none;stroke-width:0.5mm;stroke:#000;" transform="matrix(.1 0 0 .1 5.013 47.513)" />
<path d="M-17.652 475h.152" style="fill:none;stroke-width:0.5mm;stroke:#000;" transform="matrix(.1 0 0 .1 5.013 47.513)" />
<path d="M633.468 1441.71h100v-950H633.468v950" style="fill:none;stroke-width:0.5mm;stroke:#000;" transform="matrix(.1 0 0 .1 -63.334 -49.158)" />
<path d="M708.468 1441.71v-950" style="fill:none;stroke-width:0.5mm;stroke:#000;" transform="matrix(.1 0 0 .1 -63.334 -49.158)" />
</svg>