<?xml version="1.0" encoding="UTF-8" standalone="no"?>
<svg
   version="1.2"
   height="13.255298mm"
   width="16.835955mm"
   viewBox="0 0 168.35955 132.55298"
   id="svg81"
   xmlns="http://www.w3.org/2000/svg"
   xmlns:svg="http://www.w3.org/2000/svg"
   xmlns:rdf="http://www.w3.org/1999/02/22-rdf-syntax-ns#"
   xmlns:cc="http://creativecommons.org/ns#"
   xmlns:dc="http://purl.org/dc/elements/1.1/">
  <title
     id="title1">FreeCAD SVG Export</title>
  <desc
     id="desc1">Drawing page: Page exported from FreeCAD document: Unnamed</desc>
  <defs
     id="defs1" />
  <g
     id="Page"
     transform="translate(-1529.6445,-820.5576)">
    <g
       fill="none"
       stroke="#000000"
       stroke-width="1"
       id="DrawingContent"
       stroke-linejoin="bevel"
       stroke-linecap="square"
       fill-rule="evenodd"
       transform="translate(128.82414,-163.1663)"
       style="stroke-width:1;stroke-dasharray:none">
      <g
         fill="#f1f3f5"
         transform="translate(1485,1050)"
         font-weight="400"
         stroke="none"
         font-style="normal"
         font-size="29.1042px"
         font-family="'MS Shell Dlg 2'"
         fill-opacity="0"
         id="g2"
         style="stroke-width:1;stroke-dasharray:none">
        <path
           vector-effect="non-scaling-stroke"
           d="m 83.6799,-36.015 v 3.266 c 0,5.4137 -1.8625,9.5304 -5.1777,11.4445 L -11.6121,30.723 c 2.66481,14.6133 -0.719,26.3958 -8.9444,31.1448 l -2.9168,1.684 c -2.7926,1.6123 -6.0559,2.3589 -9.6399,2.2055 3.584,0.1534 6.8473,-0.5932 9.6399,-2.2055 13.1168,-7.573 13.1168,-32.1294 0,-54.84829 -13.1167,-22.71891 -34.3832,-34.99711 -47.5,-27.42411 -2.7995,1.6163 -5.0821,4.0772 -6.7422,7.2691 v 0 c 0,0 0,0 -10e-5,10e-5 -8.3294,16.01502 -7.9113,35.1732 1.1089,50.8096 9.0202,15.6364 25.3954,25.5893 43.429,26.3963 -18.0336,-0.807 -34.4088,-10.7599 -43.429,-26.3963 -9.0202,-15.6364 -9.4383,-34.79458 -1.1089,-50.8096 v 0 c 10e-5,-10e-5 10e-5,-10e-5 10e-5,-10e-5 1.6601,-3.1919 3.9427,-5.6528 6.7422,-7.2691 l 2.9168,-1.6841 c 8.2254,-4.7489 20.1213,-1.7881 31.4444,7.8264 l 90.1143,-52.0275 c 3.3152,-1.914 7.8116,-1.4686 12.5,1.2382 l 2.8284,1.633 c 8.201,4.7349 14.8493,16.2499 14.8493,25.7196"
           fill-rule="evenodd"
           id="path1"
           style="stroke-width:1;stroke-dasharray:none" />
      </g>
      <g
         fill="#f1f3f5"
         transform="translate(1485,1050)"
         font-weight="400"
         stroke="none"
         font-style="normal"
         font-size="29.1042px"
         font-family="'MS Shell Dlg 2'"
         fill-opacity="0"
         id="g3"
         style="stroke-width:1;stroke-dasharray:none">
        <path
           vector-effect="non-scaling-stroke"
           d="m -11.6121,30.723 c -2.9182,-16.003 -12.6001,-32.77254 -25,-43.3013 l 90.1143,-52.0275 c 3.3152,-1.914 7.8116,-1.4686 12.5,1.2382 9.7631,5.6367 17.6777,19.3452 17.6777,30.6186 0,5.4137 -1.8625,9.5304 -5.1777,11.4445 L -11.6121,30.723"
           fill-rule="evenodd"
           id="path2"
           style="stroke-width:1;stroke-dasharray:none" />
      </g>
      <g
         fill="#f1f3f5"
         transform="translate(1485,1050)"
         font-weight="400"
         stroke="none"
         font-style="normal"
         font-size="29.1042px"
         font-family="'MS Shell Dlg 2'"
         fill-opacity="0"
         id="g4"
         style="stroke-width:1;stroke-dasharray:none">
        <path
           vector-effect="non-scaling-stroke"
           d="m -76.2519,10.3077 c -6.9036,3.9858 -6.9036,16.9102 0,28.8676 6.9036,11.9573 18.0964,18.4195 25,14.4337 m 0,0 c 6.9036,-3.9858 6.9036,-16.9102 0,-28.8675 -6.9036,-11.9573 -18.0964,-18.41952 -25,-14.4338"
           fill-rule="evenodd"
           id="path3"
           style="stroke-width:1;stroke-dasharray:none" />
      </g>
      <g
         fill="#f1f3f5"
         transform="translate(1485,1050)"
         font-weight="400"
         stroke="none"
         font-style="normal"
         font-size="29.1042px"
         font-family="'MS Shell Dlg 2'"
         fill-opacity="0"
         id="g5"
         style="stroke-width:1;stroke-dasharray:none">
        <path
           vector-effect="non-scaling-stroke"
           d="m -51.5045,39.0295 c 0,-1.1702 -0.1257,-2.4084 -0.3744,-3.6863 -0.8115,-4.1707 -2.8851,-8.5337 -5.7493,-12.0967 -1.1934,-1.4846 -2.4945,-2.7932 -3.8486,-3.8705 -0.476,-0.3788 -0.9571,-0.7278 -1.4404,-1.045 -0.2779,-0.1823 -0.5562,-0.354 -0.8347,-0.5148 -2.1499,-1.2412 -4.2619,-1.8071 -6.1237,-1.6408 -3.7894,0.3385 -6.1238,3.6594 -6.1238,8.7119 0,5.0525 2.3344,11.069 6.1238,15.783 3.7893,4.714 8.458,7.4095 12.2474,7.0711 3.7894,-0.3385 6.1237,-3.6594 6.1237,-8.7119"
           fill-rule="evenodd"
           id="path4"
           style="stroke-width:1;stroke-dasharray:none" />
      </g>
      <g
         fill="#f1f3f5"
         transform="translate(1485,1050)"
         font-weight="400"
         stroke="none"
         font-style="normal"
         font-size="29.1042px"
         font-family="'MS Shell Dlg 2'"
         fill-opacity="0"
         id="g6"
         style="stroke-width:1;stroke-dasharray:none">
        <path
           vector-effect="non-scaling-stroke"
           d="m -20.5565,61.8678 c 8.2254,-4.749 11.60921,-16.5315 8.9444,-31.1448 -2.9182,-16.003 -12.6001,-32.77254 -25,-43.3013 -11.3231,-9.6145 -23.219,-12.5753 -31.4444,-7.8264 l -2.9168,1.6841 c 13.1168,-7.573 34.3833,4.7052 47.5,27.42411 13.1168,22.71889 13.1168,47.27529 0,54.84829 l 2.9168,-1.684"
           fill-rule="evenodd"
           id="path5"
           style="stroke-width:1;stroke-dasharray:none" />
      </g>
      <g
         fill="#f1f3f5"
         transform="translate(1485,1050)"
         font-weight="400"
         stroke="none"
         font-style="normal"
         font-size="29.1042px"
         font-family="'MS Shell Dlg 2'"
         fill-opacity="0"
         id="g7"
         style="stroke-width:1;stroke-dasharray:none">
        <path
           vector-effect="non-scaling-stroke"
           d="m -61.4768,19.376 5.213,13.4355 -13.6118,7.8588 c -0.0077,-3.7016 -0.4809,-6.385 -1.421,-8.8388 -0.9597,-2.4426 -2.3609,-4.5903 -4.7028,-6.9442 l 12.1213,-6.9982 c 0.334,0.1417 0.6543,0.289 0.9609,0.4419 0.4833,0.3172 0.9644,0.6662 1.4404,1.045"
           fill-rule="evenodd"
           id="path7"
           style="stroke-width:1;stroke-dasharray:none" />
      </g>
      <g
         fill="#f1f3f5"
         transform="translate(1485,1050)"
         font-weight="400"
         stroke="none"
         font-style="normal"
         font-size="29.1042px"
         font-family="'MS Shell Dlg 2'"
         fill-opacity="0"
         id="g9"
         style="stroke-width:1;stroke-dasharray:none">
        <path
           vector-effect="non-scaling-stroke"
           d="m -56.2638,32.8115 -13.6118,7.8588 c 3.5166,0.6827 5.855,1.497 7.7645,2.5882 1.89,1.1025 3.3005,2.4525 4.4829,4.4829 2.3419,-2.3451 3.7431,-3.9464 4.7027,-5.3033 0.9401,-1.3457 1.4134,-2.4112 1.421,-3.4086 0,-1.1702 -0.1257,-2.4084 -0.3744,-3.6863 l -4.3849,-2.5317"
           fill-rule="evenodd"
           id="path9"
           style="stroke-width:1;stroke-dasharray:none" />
      </g>
      <g
         fill="#f1f3f5"
         transform="translate(1485,1050)"
         font-weight="400"
         stroke="none"
         font-style="normal"
         font-size="29.1042px"
         font-family="'MS Shell Dlg 2'"
         fill-opacity="0"
         id="g11"
         style="stroke-width:1;stroke-dasharray:none">
        <path
           vector-effect="non-scaling-stroke"
           d="m -56.2638,32.8115 4.3849,2.5317 c -0.8115,-4.1707 -2.8851,-8.5337 -5.7493,-12.0967 -1.1934,-1.4846 -2.4945,-2.7932 -3.8486,-3.8705 l 5.213,13.4355"
           fill-rule="evenodd"
           id="path11"
           style="stroke-width:1;stroke-dasharray:none" />
      </g>
      <g
         fill="#f1f3f5"
         transform="translate(1485,1050)"
         font-weight="400"
         stroke="none"
         font-style="normal"
         font-size="29.1042px"
         font-family="'MS Shell Dlg 2'"
         fill-opacity="0"
         id="g13"
         style="stroke-width:1;stroke-dasharray:none">
        <path
           vector-effect="non-scaling-stroke"
           d="m -75.9994,24.8873 c 0,5.0525 2.3344,11.069 6.1238,15.783 -0.0077,-3.7016 -0.4809,-6.385 -1.421,-8.8388 -0.9597,-2.4426 -2.3609,-4.5903 -4.7028,-6.9442"
           fill-rule="evenodd"
           id="path13"
           style="stroke-width:1;stroke-dasharray:none" />
      </g>
      <g
         fill="#f1f3f5"
         transform="translate(1485,1050)"
         font-weight="400"
         stroke="none"
         font-style="normal"
         font-size="29.1042px"
         font-family="'MS Shell Dlg 2'"
         fill-opacity="0"
         id="g15"
         style="stroke-width:1;stroke-dasharray:none">
        <path
           vector-effect="non-scaling-stroke"
           d="m -69.8756,40.6703 c 3.7893,4.714 8.458,7.4095 12.2474,7.0711 -1.1824,-2.0304 -2.5929,-3.3804 -4.4829,-4.4829 -1.9095,-1.0912 -4.2479,-1.9055 -7.7645,-2.5882"
           fill-rule="evenodd"
           id="path15"
           style="stroke-width:1;stroke-dasharray:none" />
      </g>
      <g
         fill="#f1f3f5"
         transform="translate(1485,1050)"
         font-weight="400"
         stroke="none"
         font-style="normal"
         font-size="29.1042px"
         font-family="'MS Shell Dlg 2'"
         fill-opacity="0"
         id="g17"
         style="stroke-width:1;stroke-dasharray:none">
        <path
           vector-effect="non-scaling-stroke"
           d="m -69.8756,16.1754 c 2.5151,0.4857 4.4072,1.0417 5.9975,1.7137 l -12.1213,6.9982 c 2.3419,-2.3451 3.7431,-3.9463 4.7028,-5.3033 0.9401,-1.3457 1.4133,-2.4112 1.421,-3.4086"
           fill-rule="evenodd"
           id="path17"
           style="stroke-width:1;stroke-dasharray:none" />
      </g>
      <g
         fill="#f1f3f5"
         transform="translate(1485,1050)"
         font-weight="400"
         stroke="none"
         font-style="normal"
         font-size="29.1042px"
         font-family="'MS Shell Dlg 2'"
         fill-opacity="0"
         id="g19"
         style="stroke-width:1;stroke-dasharray:none">
        <path
           vector-effect="non-scaling-stroke"
           d="m 83.6799,-36.015 v 3.266 c 0,-11.2734 -7.9146,-24.9819 -17.6777,-30.6186 l 2.8284,1.633 c 8.201,4.7349 14.8493,16.2499 14.8493,25.7196"
           fill-rule="evenodd"
           id="path19"
           style="stroke-width:1;stroke-dasharray:none" />
      </g>
      <g
         fill="#f1f3f5"
         transform="translate(1485,1050)"
         font-weight="400"
         stroke="none"
         font-style="normal"
         font-size="29.1042px"
         font-family="'MS Shell Dlg 2'"
         fill-opacity="0"
         id="g21"
         style="stroke-width:1;stroke-dasharray:none">
        <path
           vector-effect="non-scaling-stroke"
           d="m -69.8756,16.1754 c -0.0077,0.9974 -0.4809,2.0629 -1.421,3.4086 -0.9597,1.357 -2.3609,2.9582 -4.7028,5.3033 0,-5.0525 2.3344,-8.3734 6.1238,-8.7119"
           fill-rule="evenodd"
           id="path21"
           style="stroke-width:1;stroke-dasharray:none" />
      </g>
      <g
         fill="#f1f3f5"
         transform="translate(1485,1050)"
         font-weight="400"
         stroke="none"
         font-style="normal"
         font-size="29.1042px"
         font-family="'MS Shell Dlg 2'"
         fill-opacity="0"
         id="g23"
         style="stroke-width:1;stroke-dasharray:none">
        <path
           vector-effect="non-scaling-stroke"
           d="m -57.6282,47.7414 c 3.7894,-0.3385 6.1237,-3.6594 6.1237,-8.7119 -0.0076,0.9974 -0.4809,2.0629 -1.421,3.4086 -0.9596,1.3569 -2.3608,2.9582 -4.7027,5.3033"
           fill-rule="evenodd"
           id="path23"
           style="stroke-width:1;stroke-dasharray:none" />
      </g>
      <g
         fill="#f1f3f5"
         transform="translate(1485,1050)"
         font-weight="400"
         stroke="none"
         font-style="normal"
         font-size="29.1042px"
         font-family="'MS Shell Dlg 2'"
         fill-opacity="0"
         id="g25"
         style="stroke-width:1;stroke-dasharray:none">
        <path
           vector-effect="non-scaling-stroke"
           d="m -62.9172,18.331 c -0.2779,-0.1823 -0.5562,-0.354 -0.8347,-0.5148 -2.1499,-1.2412 -4.2619,-1.8071 -6.1237,-1.6408 2.5151,0.4857 4.4072,1.0417 5.9975,1.7137 0.334,0.1417 0.6543,0.289 0.9609,0.4419"
           fill-rule="evenodd"
           id="path25"
           style="stroke-width:1;stroke-dasharray:none" />
      </g>
      <g
         fill="#f1f3f5"
         transform="translate(1485,1050)"
         font-weight="400"
         stroke="none"
         font-style="normal"
         font-size="29.1042px"
         font-family="'MS Shell Dlg 2'"
         fill-opacity="0"
         id="g27"
         style="stroke-width:1;stroke-dasharray:none">
        <path
           vector-effect="non-scaling-stroke"
           d="m -77.7155,-11.4515 c 0,0 0,0 -10e-5,10e-5"
           fill-rule="evenodd"
           id="path27"
           style="stroke-width:1;stroke-dasharray:none" />
      </g>
      <g
         fill="#f1f3f5"
         transform="translate(1485,1050)"
         font-weight="400"
         stroke="none"
         font-style="normal"
         font-size="29.1042px"
         font-family="'MS Shell Dlg 2'"
         fill-opacity="0"
         id="g29"
         style="stroke-width:1;stroke-dasharray:none">
        <path
           vector-effect="non-scaling-stroke"
           d="m -77.7155,-11.4515 c 0,0 0,0 -10e-5,10e-5"
           fill-rule="evenodd"
           id="path29"
           style="stroke-width:1;stroke-dasharray:none" />
      </g>
      <g
         fill="none"
         transform="translate(1485,1050)"
         font-weight="400"
         stroke="#000000"
         font-style="normal"
         font-size="29.1042px"
         stroke-width="7"
         stroke-opacity="1"
         font-family="'MS Shell Dlg 2'"
         stroke-linejoin="bevel"
         stroke-linecap="round"
         id="g30"
         style="stroke-width:1;stroke-dasharray:none">
        <path
           vector-effect="none"
           d="m 53.5022,-64.6058 c 3.3152,-1.914 7.8116,-1.4686 12.5,1.2382"
           fill-rule="evenodd"
           id="path30"
           style="stroke-width:1;stroke-dasharray:none" />
      </g>
      <g
         fill="none"
         transform="translate(1485,1050)"
         font-weight="400"
         stroke="#000000"
         font-style="normal"
         font-size="29.1042px"
         stroke-width="7"
         stroke-opacity="1"
         font-family="'MS Shell Dlg 2'"
         stroke-linejoin="bevel"
         stroke-linecap="round"
         id="g31"
         style="stroke-width:1;stroke-dasharray:none">
        <path
           vector-effect="none"
           d="m 66.0022,-63.3676 c 9.7631,5.6367 17.6777,19.3452 17.6777,30.6186"
           fill-rule="evenodd"
           id="path31"
           style="stroke-width:1;stroke-dasharray:none" />
      </g>
      <g
         fill="none"
         transform="translate(1485,1050)"
         font-weight="400"
         stroke="#000000"
         font-style="normal"
         font-size="29.1042px"
         stroke-width="7"
         stroke-opacity="1"
         font-family="'MS Shell Dlg 2'"
         stroke-linejoin="bevel"
         stroke-linecap="round"
         id="g33"
         style="stroke-width:1;stroke-dasharray:none">
        <path
           vector-effect="none"
           d="m 83.6799,-32.749 c 0,5.4137 -1.8625,9.5304 -5.1777,11.4445"
           fill-rule="evenodd"
           id="path33"
           style="stroke-width:1;stroke-dasharray:none" />
      </g>
      <g
         fill="none"
         transform="translate(1485,1050)"
         font-weight="400"
         stroke="#000000"
         font-style="normal"
         font-size="29.1042px"
         stroke-width="7"
         stroke-opacity="1"
         font-family="'MS Shell Dlg 2'"
         stroke-linejoin="bevel"
         stroke-linecap="round"
         id="g35"
         style="stroke-width:1;stroke-dasharray:none">
        <path
           vector-effect="none"
           d="m 83.6799,-36.015 c 0,-9.4697 -6.6483,-20.9847 -14.8493,-25.7196"
           fill-rule="evenodd"
           id="path35"
           style="stroke-width:1;stroke-dasharray:none" />
      </g>
      <g
         fill="none"
         transform="translate(1485,1050)"
         font-weight="400"
         stroke="#000000"
         font-style="normal"
         font-size="29.1042px"
         stroke-width="7"
         stroke-opacity="1"
         font-family="'MS Shell Dlg 2'"
         stroke-linejoin="bevel"
         stroke-linecap="round"
         id="g37"
         style="stroke-width:1;stroke-dasharray:none">
        <path
           vector-effect="none"
           d="m -57.6282,23.2465 c -1.8618,-2.3162 -3.9738,-4.189 -6.1237,-5.4303"
           fill-rule="evenodd"
           id="path37"
           style="stroke-width:1;stroke-dasharray:none" />
      </g>
      <g
         fill="none"
         transform="translate(1485,1050)"
         font-weight="400"
         stroke="#000000"
         font-style="normal"
         font-size="29.1042px"
         stroke-width="7"
         stroke-opacity="1"
         font-family="'MS Shell Dlg 2'"
         stroke-linejoin="bevel"
         stroke-linecap="round"
         id="g39"
         style="stroke-width:1;stroke-dasharray:none">
        <path
           vector-effect="none"
           d="m -63.7519,17.8162 c -2.1499,-1.2412 -4.2619,-1.8071 -6.1237,-1.6408"
           fill-rule="evenodd"
           id="path39"
           style="stroke-width:1;stroke-dasharray:none" />
      </g>
      <g
         fill="none"
         transform="translate(1485,1050)"
         font-weight="400"
         stroke="#000000"
         font-style="normal"
         font-size="29.1042px"
         stroke-width="7"
         stroke-opacity="1"
         font-family="'MS Shell Dlg 2'"
         stroke-linejoin="bevel"
         stroke-linecap="round"
         id="g40"
         style="stroke-width:1;stroke-dasharray:none">
        <path
           vector-effect="none"
           d="m -69.8756,16.1754 c 3.041,0.5886 5.1866,1.2781 6.9584,2.1556"
           fill-rule="evenodd"
           id="path40"
           style="stroke-width:1;stroke-dasharray:none" />
      </g>
      <g
         fill="none"
         transform="translate(1485,1050)"
         font-weight="400"
         stroke="#000000"
         font-style="normal"
         font-size="29.1042px"
         stroke-width="7"
         stroke-opacity="1"
         font-family="'MS Shell Dlg 2'"
         stroke-linejoin="bevel"
         stroke-linecap="round"
         id="g41"
         style="stroke-width:1;stroke-dasharray:none">
        <path
           vector-effect="none"
           d="m -20.5565,61.8678 c 13.11679,-7.573 13.11679,-32.1294 0,-54.84831 -13.1167,-22.71889 -34.3832,-34.99709 -47.5,-27.42419"
           fill-rule="evenodd"
           id="path41"
           style="stroke-width:1;stroke-dasharray:none" />
      </g>
      <g
         fill="none"
         transform="translate(1485,1050)"
         font-weight="400"
         stroke="#000000"
         font-style="normal"
         font-size="29.1042px"
         stroke-width="7"
         stroke-opacity="1"
         font-family="'MS Shell Dlg 2'"
         stroke-linejoin="bevel"
         stroke-linecap="round"
         id="g43"
         style="stroke-width:1;stroke-dasharray:none">
        <path
           vector-effect="none"
           d="m -33.1132,65.7573 c 3.584,0.1534 6.8473,-0.5932 9.6399,-2.2055"
           fill-rule="evenodd"
           id="path43"
           style="stroke-width:1;stroke-dasharray:none" />
      </g>
      <g
         fill="none"
         transform="translate(1485,1050)"
         font-weight="400"
         stroke="#000000"
         font-style="normal"
         font-size="29.1042px"
         stroke-width="7"
         stroke-opacity="1"
         font-family="'MS Shell Dlg 2'"
         stroke-linejoin="bevel"
         stroke-linecap="round"
         id="g45"
         style="stroke-width:1;stroke-dasharray:none">
        <path
           vector-effect="none"
           d="m -23.4733,63.5518 c 13.1168,-7.573 13.1168,-32.1294 0,-54.84829 -13.1167,-22.71891 -34.3832,-34.99711 -47.5,-27.42411"
           fill-rule="evenodd"
           id="path45"
           style="stroke-width:1;stroke-dasharray:none" />
      </g>
      <g
         fill="none"
         transform="translate(1485,1050)"
         font-weight="400"
         stroke="#000000"
         font-style="normal"
         font-size="29.1042px"
         stroke-width="7"
         stroke-opacity="1"
         font-family="'MS Shell Dlg 2'"
         stroke-linejoin="bevel"
         stroke-linecap="round"
         id="g47"
         style="stroke-width:1;stroke-dasharray:none">
        <path
           vector-effect="none"
           d="m -70.9733,-18.7206 c -2.7996,1.6163 -5.0821,4.0773 -6.7423,7.2692"
           fill-rule="evenodd"
           id="path47"
           style="stroke-width:1;stroke-dasharray:none" />
      </g>
      <g
         fill="none"
         transform="translate(1485,1050)"
         font-weight="400"
         stroke="#000000"
         font-style="normal"
         font-size="29.1042px"
         stroke-width="7"
         stroke-opacity="1"
         font-family="'MS Shell Dlg 2'"
         stroke-linejoin="bevel"
         stroke-linecap="round"
         id="g49"
         style="stroke-width:1;stroke-dasharray:none">
        <path
           vector-effect="none"
           d="m -56.2638,32.8115 -13.6118,7.8588"
           fill-rule="evenodd"
           id="path49"
           style="stroke-width:1;stroke-dasharray:none" />
      </g>
      <g
         fill="none"
         transform="translate(1485,1050)"
         font-weight="400"
         stroke="#000000"
         font-style="normal"
         font-size="29.1042px"
         stroke-width="7"
         stroke-opacity="1"
         font-family="'MS Shell Dlg 2'"
         stroke-linejoin="bevel"
         stroke-linecap="round"
         id="g51"
         style="stroke-width:1;stroke-dasharray:none">
        <path
           vector-effect="none"
           d="m -69.8756,40.6703 c 3.5166,0.6827 5.855,1.497 7.7645,2.5882 1.89,1.1025 3.3005,2.4525 4.4829,4.4829"
           fill-rule="evenodd"
           id="path51"
           style="stroke-width:1;stroke-dasharray:none" />
      </g>
      <g
         fill="none"
         transform="translate(1485,1050)"
         font-weight="400"
         stroke="#000000"
         font-style="normal"
         font-size="29.1042px"
         stroke-width="7"
         stroke-opacity="1"
         font-family="'MS Shell Dlg 2'"
         stroke-linejoin="bevel"
         stroke-linecap="round"
         id="g53"
         style="stroke-width:1;stroke-dasharray:none">
        <path
           vector-effect="none"
           d="m -56.2638,32.8115 4.3849,2.5317"
           fill-rule="evenodd"
           id="path53"
           style="stroke-width:1;stroke-dasharray:none" />
      </g>
      <g
         fill="none"
         transform="translate(1485,1050)"
         font-weight="400"
         stroke="#000000"
         font-style="normal"
         font-size="29.1042px"
         stroke-width="7"
         stroke-opacity="1"
         font-family="'MS Shell Dlg 2'"
         stroke-linejoin="bevel"
         stroke-linecap="round"
         id="g55"
         style="stroke-width:1;stroke-dasharray:none">
        <path
           vector-effect="none"
           d="m -63.8781,17.8891 -12.1213,6.9982"
           fill-rule="evenodd"
           id="path55"
           style="stroke-width:1;stroke-dasharray:none" />
      </g>
      <g
         fill="none"
         transform="translate(1485,1050)"
         font-weight="400"
         stroke="#000000"
         font-style="normal"
         font-size="29.1042px"
         stroke-width="7"
         stroke-opacity="1"
         font-family="'MS Shell Dlg 2'"
         stroke-linejoin="bevel"
         stroke-linecap="round"
         id="g56"
         style="stroke-width:1;stroke-dasharray:none">
        <path
           vector-effect="none"
           d="m -75.9994,24.8873 c 2.3419,2.3539 3.7431,4.5016 4.7028,6.9442 0.9401,2.4538 1.4133,5.1372 1.421,8.8388"
           fill-rule="evenodd"
           id="path56"
           style="stroke-width:1;stroke-dasharray:none" />
      </g>
      <g
         fill="none"
         transform="translate(1485,1050)"
         font-weight="400"
         stroke="#000000"
         font-style="normal"
         font-size="29.1042px"
         stroke-width="7"
         stroke-opacity="1"
         font-family="'MS Shell Dlg 2'"
         stroke-linejoin="bevel"
         stroke-linecap="round"
         id="g57"
         style="stroke-width:1;stroke-dasharray:none">
        <path
           vector-effect="none"
           d="m -61.4768,19.376 5.213,13.4355"
           fill-rule="evenodd"
           id="path57"
           style="stroke-width:1;stroke-dasharray:none" />
      </g>
      <g
         fill="none"
         transform="translate(1485,1050)"
         font-weight="400"
         stroke="#000000"
         font-style="normal"
         font-size="29.1042px"
         stroke-width="7"
         stroke-opacity="1"
         font-family="'MS Shell Dlg 2'"
         stroke-linejoin="bevel"
         stroke-linecap="round"
         id="g59"
         style="stroke-width:1;stroke-dasharray:none">
        <path
           vector-effect="none"
           d="m -57.6282,47.7414 c 2.3419,-2.3451 3.7431,-3.9464 4.7027,-5.3033 0.9401,-1.3457 1.4134,-2.4112 1.421,-3.4086"
           fill-rule="evenodd"
           id="path59"
           style="stroke-width:1;stroke-dasharray:none" />
      </g>
      <g
         fill="none"
         transform="translate(1485,1050)"
         font-weight="400"
         stroke="#000000"
         font-style="normal"
         font-size="29.1042px"
         stroke-width="7"
         stroke-opacity="1"
         font-family="'MS Shell Dlg 2'"
         stroke-linejoin="bevel"
         stroke-linecap="round"
         id="g60"
         style="stroke-width:1;stroke-dasharray:none">
        <path
           vector-effect="none"
           d="m -57.6282,47.7414 c 3.7894,-0.3385 6.1237,-3.6594 6.1237,-8.7119"
           fill-rule="evenodd"
           id="path60"
           style="stroke-width:1;stroke-dasharray:none" />
      </g>
      <g
         fill="none"
         transform="translate(1485,1050)"
         font-weight="400"
         stroke="#000000"
         font-style="normal"
         font-size="29.1042px"
         stroke-width="7"
         stroke-opacity="1"
         font-family="'MS Shell Dlg 2'"
         stroke-linejoin="bevel"
         stroke-linecap="round"
         id="g61"
         style="stroke-width:1;stroke-dasharray:none">
        <path
           vector-effect="none"
           d="m -51.5045,39.0295 c 0,-5.0525 -2.3343,-11.069 -6.1237,-15.783"
           fill-rule="evenodd"
           id="path61"
           style="stroke-width:1;stroke-dasharray:none" />
      </g>
      <g
         fill="none"
         transform="translate(1485,1050)"
         font-weight="400"
         stroke="#000000"
         font-style="normal"
         font-size="29.1042px"
         stroke-width="7"
         stroke-opacity="1"
         font-family="'MS Shell Dlg 2'"
         stroke-linejoin="bevel"
         stroke-linecap="round"
         id="g63"
         style="stroke-width:1;stroke-dasharray:none">
        <path
           vector-effect="none"
           d="m -69.8756,16.1754 c -0.0077,0.9974 -0.4809,2.0629 -1.421,3.4086 -0.9597,1.357 -2.3609,2.9582 -4.7028,5.3033"
           fill-rule="evenodd"
           id="path63"
           style="stroke-width:1;stroke-dasharray:none" />
      </g>
      <g
         fill="none"
         transform="translate(1485,1050)"
         font-weight="400"
         stroke="#000000"
         font-style="normal"
         font-size="29.1042px"
         stroke-width="7"
         stroke-opacity="1"
         font-family="'MS Shell Dlg 2'"
         stroke-linejoin="bevel"
         stroke-linecap="round"
         id="g64"
         style="stroke-width:1;stroke-dasharray:none">
        <path
           vector-effect="none"
           d="m -69.8756,16.1754 c -3.7894,0.3385 -6.1238,3.6594 -6.1238,8.7119"
           fill-rule="evenodd"
           id="path64"
           style="stroke-width:1;stroke-dasharray:none" />
      </g>
      <g
         fill="none"
         transform="translate(1485,1050)"
         font-weight="400"
         stroke="#000000"
         font-style="normal"
         font-size="29.1042px"
         stroke-width="7"
         stroke-opacity="1"
         font-family="'MS Shell Dlg 2'"
         stroke-linejoin="bevel"
         stroke-linecap="round"
         id="g65"
         style="stroke-width:1;stroke-dasharray:none">
        <path
           vector-effect="none"
           d="m -75.9994,24.8873 c 0,5.0525 2.3344,11.069 6.1238,15.783"
           fill-rule="evenodd"
           id="path65"
           style="stroke-width:1;stroke-dasharray:none" />
      </g>
      <g
         fill="none"
         transform="translate(1485,1050)"
         font-weight="400"
         stroke="#000000"
         font-style="normal"
         font-size="29.1042px"
         stroke-width="7"
         stroke-opacity="1"
         font-family="'MS Shell Dlg 2'"
         stroke-linejoin="bevel"
         stroke-linecap="round"
         id="g67"
         style="stroke-width:1;stroke-dasharray:none">
        <path
           vector-effect="none"
           d="m -69.8756,40.6703 c 3.7893,4.714 8.458,7.4095 12.2474,7.0711"
           fill-rule="evenodd"
           id="path67"
           style="stroke-width:1;stroke-dasharray:none" />
      </g>
      <g
         fill="none"
         transform="translate(1485,1050)"
         font-weight="400"
         stroke="#000000"
         font-style="normal"
         font-size="29.1042px"
         stroke-width="7"
         stroke-opacity="1"
         font-family="'MS Shell Dlg 2'"
         stroke-linejoin="bevel"
         stroke-linecap="round"
         id="g69"
         style="stroke-width:1;stroke-dasharray:none">
        <path
           vector-effect="none"
           d="m -76.2519,10.3077 c -6.9036,3.9858 -6.9036,16.9102 0,28.8676 6.9036,11.9573 18.0964,18.4195 25,14.4337 m 0,0 c 6.9036,-3.9858 6.9036,-16.9102 0,-28.8675 -6.9036,-11.9573 -18.0964,-18.41952 -25,-14.4338"
           fill-rule="evenodd"
           id="path69"
           style="stroke-width:1;stroke-dasharray:none" />
      </g>
      <g
         fill="none"
         transform="translate(1485,1050)"
         font-weight="400"
         stroke="#000000"
         font-style="normal"
         font-size="29.1042px"
         stroke-width="7"
         stroke-opacity="1"
         font-family="'MS Shell Dlg 2'"
         stroke-linejoin="bevel"
         stroke-linecap="round"
         id="g71"
         style="stroke-width:1;stroke-dasharray:none">
        <path
           vector-effect="none"
           d="m 68.8306,-61.7346 -2.8284,-1.633"
           fill-rule="evenodd"
           id="path71"
           style="stroke-width:1;stroke-dasharray:none" />
      </g>
      <g
         fill="none"
         transform="translate(1485,1050)"
         font-weight="400"
         stroke="#000000"
         font-style="normal"
         font-size="29.1042px"
         stroke-width="7"
         stroke-opacity="1"
         font-family="'MS Shell Dlg 2'"
         stroke-linejoin="bevel"
         stroke-linecap="round"
         id="g73"
         style="stroke-width:1;stroke-dasharray:none">
        <path
           vector-effect="none"
           d="m 83.6799,-36.015 v 3.266"
           fill-rule="evenodd"
           id="path73"
           style="stroke-width:1;stroke-dasharray:none" />
      </g>
      <g
         fill="none"
         transform="translate(1485,1050)"
         font-weight="400"
         stroke="#000000"
         font-style="normal"
         font-size="29.1042px"
         stroke-width="7"
         stroke-opacity="1"
         font-family="'MS Shell Dlg 2'"
         stroke-linejoin="bevel"
         stroke-linecap="round"
         id="g75"
         style="stroke-width:1;stroke-dasharray:none">
        <path
           vector-effect="none"
           d="M -11.6121,30.723 78.5022,-21.3045"
           fill-rule="evenodd"
           id="path75"
           style="stroke-width:1;stroke-dasharray:none" />
      </g>
      <g
         fill="none"
         transform="translate(1485,1050)"
         font-weight="400"
         stroke="#000000"
         font-style="normal"
         font-size="29.1042px"
         stroke-width="7"
         stroke-opacity="1"
         font-family="'MS Shell Dlg 2'"
         stroke-linejoin="bevel"
         stroke-linecap="round"
         id="g76"
         style="stroke-width:1;stroke-dasharray:none">
        <path
           vector-effect="none"
           d="M -36.6121,-12.5783 53.5022,-64.6058"
           fill-rule="evenodd"
           id="path76"
           style="stroke-width:1;stroke-dasharray:none" />
      </g>
      <g
         fill="none"
         transform="translate(1485,1050)"
         font-weight="400"
         stroke="#000000"
         font-style="normal"
         font-size="29.1042px"
         stroke-width="7"
         stroke-opacity="1"
         font-family="'MS Shell Dlg 2'"
         stroke-linejoin="bevel"
         stroke-linecap="round"
         id="g77"
         style="stroke-width:1;stroke-dasharray:none">
        <path
           vector-effect="none"
           d="m -68.0565,-20.4047 -2.9168,1.6841"
           fill-rule="evenodd"
           id="path77"
           style="stroke-width:1;stroke-dasharray:none" />
      </g>
      <g
         fill="none"
         transform="translate(1485,1050)"
         font-weight="400"
         stroke="#000000"
         font-style="normal"
         font-size="29.1042px"
         stroke-width="7"
         stroke-opacity="1"
         font-family="'MS Shell Dlg 2'"
         stroke-linejoin="bevel"
         stroke-linecap="round"
         id="g79"
         style="stroke-width:1;stroke-dasharray:none">
        <path
           vector-effect="none"
           d="m -20.5565,61.8678 -2.9168,1.684"
           fill-rule="evenodd"
           id="path79"
           style="stroke-width:1;stroke-dasharray:none" />
      </g>
      <g
         fill="none"
         transform="translate(1485,1050)"
         font-weight="400"
         stroke="#000000"
         font-style="normal"
         font-size="29.1042px"
         stroke-width="7"
         stroke-opacity="1"
         font-family="'MS Shell Dlg 2'"
         stroke-linejoin="bevel"
         stroke-linecap="round"
         id="g81"
         style="stroke-width:1;stroke-dasharray:none">
        <path
           vector-effect="none"
           d="m -77.7155,-11.4515 c -8.3295,16.01502 -7.9115,35.1732 1.1087,50.8096 9.0202,15.6365 25.3955,25.5894 43.4291,26.3964"
           fill-rule="evenodd"
           id="path81"
           style="stroke-width:1;stroke-dasharray:none" />
      </g>
    </g>
  </g>
  <metadata
     id="metadata81">
    <rdf:RDF>
      <cc:Work
         rdf:about="">
        <dc:title>FreeCAD SVG Export</dc:title>
      </cc:Work>
    </rdf:RDF>
  </metadata>
</svg>
